/* XPM */
static char *b31afd4ac6dc43a1ea8064d62a3464db3cajdvo72GqABZ4h[] = {
/* columns rows colors chars-per-pixel */
"64 64 5 1 ",
"  c None",
". c black",
"X c #0FDC0A",
"o c #A9FB39",
"O c #CBFBAE",
/* pixels */
"                                                                ",
"                                                                ",
"                                                                ",
"                                                                ",
"                                                                ",
"                                                                ",
"                                                                ",
"                                                                ",
"                                                                ",
"                                                                ",
"                                                                ",
"                                                                ",
"                                                                ",
"                                                                ",
"                                                                ",
"                                                                ",
"                                                                ",
"                                                                ",
"                                                                ",
"                                                                ",
"                ................................                ",
"                .oooooooooooooooooooooooooooooo.                ",
"                .XXXXXooooooXXXXXXXXXXXXXXXXXXX.                ",
"                .OoOXXoOoOoOXoOXXXXXXXXXXoXoXOo.                ",
"                .oOoXXOoooOoXooXXXXXXXXXXXoXooo.                ",
"                .OoOXXoOoOoOXoOXXXXXXXXXXoXoXOo.                ",
"                .oooXXooooooXooXXXXXXXXXXXoXooo.                ",
"                .OoOXXoOoOoOXoOXXXXXXXXXXoXoXOo.                ",
"                .oOoXXOoooOoXooXXXXXXXXXXXoXooo.                ",
"                .OoOXXoOoOoOXoOXXXXXXXXXXoXoXOo.                ",
"                .oooXXooooooXooXXXXXXXXXXXoXooo.                ",
"                .OoOXXoOoOoOXoOXXXXXXXXXXoXoXOo.                ",
"                .oOoXXOoooOoXooXXXXXXXXXXXoXooo.                ",
"                .OoOXXoOoOoOXoOXXXXXXXXXXoXoXOo.                ",
"                ................................                ",
"                  ............................                  ",
"                  .oooXXoooooXooXXXXXXXXoXooo.                  ",
"                  .OoOXXoOoOoXoOXXXXXXXXXoXOo.                  ",
"                  .oooXXooOooXooXXXXXXXXoXooo.                  ",
"                  .OoOXXoOoOoXoOXXXXXXXXXoXOo.                  ",
"                  .oooXXoooooXooXXXXXXXXoXooo.                  ",
"                  .OoOXXoOoOoXoOXXXXXXXXXoXOo.                  ",
"                  .oooXXooOooXooXXXXXXXXoXooo.                  ",
"                  .OoOXXoOoOoXoOXXXXXXXXXoXOo.                  ",
"                  .oooXXoooooXooXXXXXXXXoXooo.                  ",
"                  .OoOXXoOoOoXoOXXXXXXXXXoXOo.                  ",
"                  .oooXXooOooXooXXXXXXXXoXooo.                  ",
"                  .OoOXXoOoOoXoOXXXXXXXXXoXOo.                  ",
"                  .oooXXoooooXooXXXXXXXXoXooo.                  ",
"                  .OoOXXoOoOoXoOXXXXXXXXXoXOo.                  ",
"                  .oooXXooOooXooXXXXXXXXoXooo.                  ",
"                  .OoOXXoOoOoXoOXXXXXXXXXoXOo.                  ",
"                  .oooXXoooooXooXXXXXXXXoXooo.                  ",
"                  .OoOXXoOoOoXoOXXXXXXXXXoXOo.                  ",
"                  .oooXXooOooXooXXXXXXXXoXooo.                  ",
"                  .OoOXXoOoOoXoOXXXXXXXXXoXOo.                  ",
"                  .oooXXoooooXooXXXXXXXXoXooo.                  ",
"                  .OoOXXoOoOoXoOXXXXXXXXXoXOo.                  ",
"                  .oooXXooOooXooXXXXXXXXoXooo.                  ",
"                  .OoOXXoOoOoXoOXXXXXXXXXoXOo.                  ",
"                  .oooXXoooooXooXXXXXXXXoXooo.                  ",
"                  .OoOXXoOoOoXoOXXXXXXXXXoXOo.                  ",
"                  .oooXXooOooXooXXXXXXXXoXooo.                  ",
"                  .OoOXXoOoOoXoOXXXXXXXXXoXOo.                  "
};
