/* XPM */
static char *d13e97b2f5a6446fc53911a29c9a2dd5IbvuEOqlW7OkCtn3[] = {
/* columns rows colors chars-per-pixel */
"32 32 3 1 ",
"  c black",
". c #F44336",
"X c white",
/* pixels */
"XXXXXXXXXXXXXXXXXXXXXXXXXXXXXXXX",
"XXXXXXX       XXXX       XXXXXXX",
"XXXXXXX       XXXX       XXXXXXX",
"XXXXXXX       XXXX       XXXXXXX",
"XXXX   .......    .......   XXXX",
"XXXX   .......    .......   XXXX",
"XXXX   .......    .......   XXXX",
"XXXX   .......    .......   XXXX",
"    ...XXXX.................    ",
"    ...XXXX.................    ",
"    ...XXXX.................    ",
"    ........................    ",
"    ........................    ",
"    ........................    ",
"    ........................    ",
"    ........................    ",
"    ........................    ",
"    ........................    ",
"XXXX   ..................   XXXX",
"XXXX   ..................   XXXX",
"XXXX   ..................   XXXX",
"XXXX   ..................   XXXX",
"XXXXXXX    ..........    XXXXXXX",
"XXXXXXX    ..........    XXXXXXX",
"XXXXXXX    ..........    XXXXXXX",
"XXXXXXXXXXX   ....   XXXXXXXXXXX",
"XXXXXXXXXXX   ....   XXXXXXXXXXX",
"XXXXXXXXXXX   ....   XXXXXXXXXXX",
"XXXXXXXXXXX   ....   XXXXXXXXXXX",
"XXXXXXXXXXXXXX    XXXXXXXXXXXXXX",
"XXXXXXXXXXXXXX    XXXXXXXXXXXXXX",
"XXXXXXXXXXXXXX    XXXXXXXXXXXXXX"
};
