/* XPM */
static char *_b133a4761194f2184d354ca2e824288H2PqAZwDqcEzPh3y[] = {
/* columns rows colors chars-per-pixel */
"64 64 7 1 ",
"  c None",
". c black",
"X c #64DD17",
"o c #76FF03",
"O c #00BCD4",
"+ c #2196F3",
"@ c white",
/* pixels */
"                                                                ",
"                                                                ",
"                                                                ",
"                                                                ",
"                                                                ",
"                                                                ",
"                                                                ",
"                                                                ",
"                                                                ",
"                         ......   ......                        ",
"                         ..oooo.....oo..                        ",
"                         ..oooo.....oo..                        ",
"                           ..ooooooo..                          ",
"                           ..ooooooo..                          ",
"                             ..ooo..                            ",
"                             ..ooo..                            ",
"                             ..XXX..                            ",
"                         .................                      ",
"                         .................                      ",
"                       ....ooooooooooooo....                    ",
"                       ....ooooooooooooo....                    ",
"                       ..ooooooooooooooooo..                    ",
"                       ..ooooooooooooooooo..                    ",
"                       ..ooooooooo............                  ",
"                     ..oooooooo.....++++OOOO..                  ",
"                     ..oooooooo.....++++OOOO..                  ",
"                     ..oooooooo...++++OOOO@@@@..                ",
"                     ..oooooooo...++++OOOO@@@@..                ",
"              .........oooooooo...++++OOOOOOOO..                ",
"              .........oooooooo...++++OOOOOOOO..                ",
"            .....oooo..oooooooo...++++++++OO++..                ",
"            ..ooooooo..oooooooo.....++++++++++..                ",
"            ..ooooooo..oooooooo.....++++++++++..                ",
"            ..ooooooo..ooooooooooooo..........                  ",
"            ..ooooooo..ooooooooooooo..........                  ",
"            ..ooooooo..XXooooooooooooooooooo..                  ",
"            ..ooooooo..XXooooooooooooooooooo..                  ",
"            ..XXXXXoo..XXXXXXooooooooooooooo..                  ",
"            ..XXXXXoo..XXXXXXooooooooooooooo..                  ",
"            ..XXXXXoo..XXXXXXXXXXXXXXXXXoooo..                  ",
"            ..XXXXXXX..XXXXXXXX.......XXXXoo..                  ",
"            ..XXXXXXX..XXXXXXXX.......XXXXoo..                  ",
"            ..XXXXXXX..XXXXXXXXXXX..XXXXXXoo..                  ",
"            ..XXXXXXX..XXXXXXXXXXX..XXXXXXoo..                  ",
"            .....XXXX..XXXXXXXXXXX..XXXXXXXX..                  ",
"            .....XXXX..XXXXXXXXXXX..XXXXXXXX..                  ",
"              .........XXXXXXXXXXX..XXXXXXXX..                  ",
"                     ....XXXXXXXXX..XXXXXXXX..                  ",
"                     ....XXXXXXXXX..XXXXXXXX..                  ",
"                       ..XXXXXXXXX..XXXXXXXX..                  ",
"                       ..XXXXXXXXX..XXXXXXXX..                  ",
"                       .....................                    ",
"                       .....................                    ",
"                                                                ",
"                                                                ",
"                                                                ",
"                                                                ",
"                                                                ",
"                                                                ",
"                                                                ",
"                                                                ",
"                                                                ",
"                                                                ",
"                                                                "
};
