/* XPM */
static char *d5eed33080da4161ae6513bb456a28a7vxpZI4nfIXOtWwJy[] = {
/* columns rows colors chars-per-pixel */
"64 64 18 1 ",
"  c None",
". c #9F0E13",
"X c #C21C1F",
"o c #E31E28",
"O c #EF4823",
"+ c #CB144B",
"@ c #F12066",
"# c #F04E5E",
"$ c #E5822C",
"% c #D59A5E",
"& c #FBA74D",
"* c #E8C17E",
"= c #EE7F81",
"- c #F2B4BC",
"; c #FFE2AF",
": c #FFFED6",
"> c #FBD7E3",
", c white",
/* pixels */
"                                                                ",
"                                                                ",
"                                                                ",
"                                                                ",
"                                                                ",
"                                                                ",
"                                                                ",
"                                                                ",
"                                                                ",
"                                                                ",
"                                                                ",
"                                                                ",
"                          XXX                                   ",
"                        OOoXXX                                  ",
"                        OOoXXX                                  ",
"                       OOOoooX  >>>-                            ",
"                  OOOOOOOOoooX  >=====>                         ",
"                  OOOOOOOOoooX  >=====>                         ",
"                 oooOOOOoooooX===>>=>>=--                       ",
"                 oooooooooXXXX..+##=--#>>-                      ",
"                 oooooooooXXXX..+##=--#>>-                      ",
"                  XXoooXXXXXX.@@#@@>==#--###                    ",
"                    XXXXXX....@@#==-==####@@=                   ",
"                    XXXXXX....@@#==-==####@@=                   ",
"                 ->>###@......==>--=##->>#@@@==                 ",
"                 >==>>>###@>>>--===#--###@@@@@@                 ",
"                 >==>>>###@>>>--===#--###@@@@@@                 ",
"               ##---===->>-=====###>==#>>@@@+@@                 ",
"              ->>-#####====#####---=##>@@@++#@@=                ",
"              ->>-#####====#####---=##>@@@++#@@=                ",
"              #>>>>>>>>#######>>===>@@@@@+++#@@@                ",
"               --#-->==>--->>-===###@@++++##@++                 ",
"               --#-->==>--->>-===###@@++++##@++                 ",
"                 $==------===####++++++###@@$                   ",
"                 $==------===####++++++###@@$                   ",
"               ;;&$$#++#==+##@@@@##+###++$&&:;;                 ",
"               ;;:&&$$$+##@++@+++++@@@+$$&,,:;;                 ",
"               ;;:&&$$$+##@++@+++++@@@+$$&,,:;;                 ",
"               ;;:;;&&&$$$&&&$$$$$$&$$&&&:;;:;;                 ",
"                 %;;,,,&$$&&&&&&$&&&&&,::;::;                   ",
"                 %;;,,,&$$&&&&&&$&&&&&,::;::;                   ",
"                 ;::;,,,::,,,,::,,,:,,,**;::*                   ",
"                 %;;*::;;;:::;;;,::;;;:***;;%                   ",
"                 %;;*::;;;:::;;;,::;;;:***;;%                   ",
"                  **;;;:;;*::;;;:**;::%**;%%                    ",
"                  **%**;***::***:***;;%%%;%%                    ",
"                  **%**;***::***:***;;%%%;%%                    ",
"                    %***;;*;;***;**;%%***%                      ",
"                     %%%;;%;;***;%%;%%%%%                       ",
"                     %%%;;%;;***;%%;%%%%%                       ",
"                        %%%%%%%%%%%%%%                          ",
"                                                                ",
"                                                                ",
"                                                                ",
"                                                                ",
"                                                                ",
"                                                                ",
"                                                                ",
"                                                                ",
"                                                                ",
"                                                                ",
"                                                                ",
"                                                                ",
"                                                                "
};
